<svg width="512" height="512" viewBox="0 0 512 512" xmlns="http://www.w3.org/2000/svg">
  <!-- 背景円 -->
  <circle cx="256" cy="256" r="240" fill="#8B5A2B" stroke="#6A4420" stroke-width="8"/>
  
  <!-- コーヒーカップ -->
  <g transform="translate(256, 256)">
    <!-- カップ本体 -->
    <path d="M-80 -40 L-80 60 Q-80 80 -60 80 L60 80 Q80 80 80 60 L80 -40 Z" fill="#FFFBF5" stroke="#4A3520" stroke-width="3"/>
    
    <!-- コーヒー液面 -->
    <ellipse cx="0" cy="-35" rx="75" ry="12" fill="#4A3520"/>
    
    <!-- ハンドル -->
    <path d="M80 -10 Q110 -10 110 20 Q110 50 80 50" fill="none" stroke="#4A3520" stroke-width="6" stroke-linecap="round"/>
    
    <!-- 湯気 -->
    <g opacity="0.7">
      <path d="M-30 -60 Q-25 -80 -30 -100" fill="none" stroke="#8B5A2B" stroke-width="3" stroke-linecap="round"/>
      <path d="M0 -65 Q5 -85 0 -105" fill="none" stroke="#8B5A2B" stroke-width="3" stroke-linecap="round"/>
      <path d="M30 -60 Q35 -80 30 -100" fill="none" stroke="#8B5A2B" stroke-width="3" stroke-linecap="round"/>
    </g>
    
    <!-- ソーサー -->
    <ellipse cx="0" cy="90" rx="100" ry="20" fill="#D4A276" stroke="#4A3520" stroke-width="2"/>
  </g>
  
  <!-- 装飾的なコーヒー豆 -->
  <g opacity="0.3">
    <ellipse cx="120" cy="120" rx="8" ry="12" fill="#4A3520" transform="rotate(45 120 120)"/>
    <ellipse cx="390" cy="390" rx="8" ry="12" fill="#4A3520" transform="rotate(-30 390 390)"/>
    <ellipse cx="390" cy="120" rx="8" ry="12" fill="#4A3520" transform="rotate(60 390 120)"/>
    <ellipse cx="120" cy="390" rx="8" ry="12" fill="#4A3520" transform="rotate(-45 120 390)"/>
  </g>
</svg>
